<?xml version="1.0" encoding="utf-8"?>
<!-- Generator: Adobe Illustrator 19.0.0, SVG Export Plug-In . SVG Version: 6.00 Build 0)  -->
<svg version="1.1" id="Layer_1" xmlns="http://www.w3.org/2000/svg" xmlns:xlink="http://www.w3.org/1999/xlink" x="0px" y="0px"
	 viewBox="0 0 180 47" style="enable-background:new 0 0 180 47;" xml:space="preserve">
<style type="text/css">
	.st0{fill:#FFFFFF;}
</style>
<polygon id="XMLID_21_" class="st0" points="67.7,0.5 69.6,0.5 69.6,5.1 79.2,5.1 79.2,0.5 81.1,0.5 81.1,11.6 79.2,11.6 79.2,6.7 
	69.6,6.7 69.6,11.6 67.7,11.6 "/>
<path id="XMLID_45_" class="st0" d="M101.1,10.4c3.6,0,5.9-1.4,5.9-4.3c0-2.8-2.3-4.3-5.9-4.3c-3.6,0-5.9,1.5-5.9,4.3
	C95.2,8.9,97.5,10.4,101.1,10.4 M101.1,11.8c-4.3,0-7.8-1.8-7.8-5.7c0-3.9,3.6-5.8,7.8-5.8c4.2,0,7.7,1.9,7.7,5.8
	C108.8,9.9,105.4,11.8,101.1,11.8"/>
<polygon id="XMLID_18_" class="st0" points="118.8,0.5 132.2,0.5 132.2,2 126.4,2 126.4,11.6 124.6,11.6 124.6,2 118.8,2 "/>
<polygon id="XMLID_17_" class="st0" points="152.6,5.1 152.6,6.6 145.7,6.6 145.7,10 155.7,10 155.7,11.6 143.9,11.6 143.9,0.5 
	155.3,0.5 155.3,2 145.7,2 145.7,5.1 "/>
<polygon id="XMLID_16_" class="st0" points="179.5,10 179.5,11.6 168.1,11.6 168.1,0.5 169.9,0.5 169.9,10 "/>
<path id="XMLID_39_" class="st0" d="M73.6,29.4h10.3l-5.2-7.6L73.6,29.4z M85.5,31.6H72.1l-2.2,3.2H67l11.6-17.3h0.2l11.8,17.3h-3
	L85.5,31.6z"/>
<path id="XMLID_36_" class="st0" d="M98.2,32.6h5.7c6.3,0,9.5-1.2,9.5-6c0-4.7-3-6.1-9.5-6.1h-5.7V32.6z M116.4,26.5
	c0,5.9-4.4,8.4-11.9,8.4h-9V18.1h9C111.9,18.1,116.4,20.7,116.4,26.5"/>
<path id="XMLID_33_" class="st0" d="M125,26.1h8.6c3.6,0,5.5-0.6,5.5-2.8c0-2.2-1.7-2.8-5.5-2.8H125V26.1z M139.1,34.9l-6-6.7H125
	v6.7h-2.8V18.1H134c5.3,0,8,1.5,8,5c0,2.8-2,4.5-5.7,5l6.1,6.8H139.1z"/>
<rect id="XMLID_9_" x="148.5" y="18.1" class="st0" width="2.8" height="16.8"/>
<path id="XMLID_29_" class="st0" d="M162.9,29.4h10.3l-5.2-7.6L162.9,29.4z M174.8,31.6h-13.4l-2.2,3.2h-2.8L168,17.6h0.2L180,34.9
	h-3L174.8,31.6z"/>
<path id="XMLID_6_" class="st0" d="M37.8,29.7l3.6,5.3h6L44,30.1C41.6,30,39.6,29.6,37.8,29.7"/>
<path id="XMLID_5_" class="st0" d="M39.2,23.1L23.7,0.4h-0.4L0,35h5.7L23.3,8.7l9.8,14.2C17.6,23.4,8.5,33.6,8.5,33.6S17,27,35,27.3
	c1.7,0,3.6,0.1,5.5,0.3c1.2,0.1,2.4,0.2,3.5,0.2c9.9-0.1,13.4-4.8,14.6-7.9C55.9,23.3,45.8,23.3,39.2,23.1"/>
<polygon id="XMLID_4_" class="st0" points="103.9,40.8 104.5,43.2 107,43.1 104.9,44.4 105.8,46.7 103.9,45.1 101.9,46.7 
	102.9,44.4 100.8,43.1 103.3,43.2 "/>
<polygon id="XMLID_3_" class="st0" points="117.2,40.8 117.8,43.2 120.3,43.1 118.1,44.4 119.1,46.7 117.2,45.1 115.2,46.7 
	116.2,44.4 114,43.1 116.5,43.2 "/>
<polygon id="XMLID_2_" class="st0" points="129.8,40.8 130.4,43.2 132.9,43.1 130.8,44.4 131.7,46.7 129.8,45.1 127.9,46.7 
	128.8,44.4 126.7,43.1 129.2,43.2 "/>
<polygon id="XMLID_1_" class="st0" points="143.1,40.8 143.7,43.2 146.2,43.1 144,44.4 145,46.7 143.1,45.1 141.1,46.7 142.1,44.4 
	140,43.1 142.5,43.2 "/>
</svg>
