<?xml version="1.0" encoding="utf-8"?>
<!-- Generator: Adobe Illustrator 19.0.0, SVG Export Plug-In . SVG Version: 6.00 Build 0)  -->
<svg version="1.1" id="Layer_1" xmlns="http://www.w3.org/2000/svg" xmlns:xlink="http://www.w3.org/1999/xlink" x="0px" y="0px"
	 viewBox="0 0 180 154" style="enable-background:new 0 0 180 154;" xml:space="preserve">
<style type="text/css">
	.st0{fill:#FFFFFF;}
</style>
<polygon id="XMLID_69_" class="st0" points="53.8,70.5 55,70.5 55,73.5 61.4,73.5 61.4,70.5 62.6,70.5 62.6,77.7 61.4,77.7 
	61.4,74.6 55,74.6 55,77.7 53.8,77.7 "/>
<path class="st0" d="M76.1,76.9c2.3,0,3.8-0.9,3.8-2.8c0-1.8-1.5-2.8-3.8-2.8c-2.3,0-3.8,1-3.8,2.8C72.3,76,73.8,76.9,76.1,76.9
	 M76.1,77.9c-2.8,0-5.1-1.2-5.1-3.8c0-2.5,2.3-3.8,5.1-3.8c2.8,0,5.1,1.2,5.1,3.8C81.2,76.7,78.9,77.9,76.1,77.9"/>
<polygon id="XMLID_66_" class="st0" points="88.3,70.5 97.1,70.5 97.1,71.5 93.3,71.5 93.3,77.7 92.1,77.7 92.1,71.5 88.3,71.5 "/>
<polygon id="XMLID_45_" class="st0" points="111.1,73.5 111.1,74.5 106.6,74.5 106.6,76.7 113.1,76.7 113.1,77.7 105.4,77.7 
	105.4,70.5 112.8,70.5 112.8,71.5 106.6,71.5 106.6,73.5 "/>
<polygon id="XMLID_39_" class="st0" points="129.1,76.7 129.1,77.7 121.7,77.7 121.7,70.5 122.9,70.5 122.9,76.7 "/>
<path class="st0" d="M10.4,106.3h16.5l-8.3-12.1L10.4,106.3z M29.3,109.9H8L4.5,115H0l18.4-27.5h0.3L37.6,115h-4.7L29.3,109.9z"/>
<path class="st0" d="M49.7,111.4h9.1c10,0,15.2-1.9,15.2-9.6c0-7.5-4.8-9.8-15.2-9.8h-9.1V111.4z M78.7,101.7c0,9.4-7,13.3-19,13.3
	H45.3V88.4h14.4C71.5,88.4,78.7,92.5,78.7,101.7"/>
<path class="st0" d="M92.4,101h13.7c5.8,0,8.8-1,8.8-4.5c0-3.5-2.6-4.5-8.8-4.5H92.4V101z M114.9,115l-9.6-10.6H92.4V115H88V88.4
	h18.6c8.4,0,12.8,2.3,12.8,7.9c0,4.5-3.2,7.2-9.1,7.9l9.8,10.8H114.9z"/>
<rect id="XMLID_18_" x="129.9" y="88.4" class="st0" width="4.4" height="26.6"/>
<path class="st0" d="M152.8,106.3h16.5l-8.3-12.1L152.8,106.3z M171.7,109.9h-21.3l-3.5,5.2h-4.5l18.4-27.5h0.3L180,115h-4.7
	L171.7,109.9z"/>
<path class="st0" d="M54.1,132.6h3.7c2,0,2.8-0.1,2.8-1.1c0-0.9-0.7-1.1-2.8-1.1h-3.7V132.6z M54.1,129.4h3.7c1.5,0,2.3-0.1,2.3-1.1
	c0-0.9-0.7-1-2.3-1h-3.7V129.4z M57.9,126.3c2.2,0,3.4,0.4,3.4,2c0,0.8-0.4,1.3-1.2,1.5c1,0.2,1.7,0.7,1.7,1.7
	c0,1.8-1.5,2.1-3.9,2.1h-5v-7.3H57.9z"/>
<path id="XMLID_12_" class="st0" d="M74.5,133.8c-3,0-4.5-1-4.5-3.2v-4.2h1.2v4.1c0,1.7,0.8,2.4,3.3,2.4c2.4,0,3.3-0.7,3.3-2.4v-4.1
	h1.2v4.2C78.9,132.8,77.5,133.8,74.5,133.8"/>
<path class="st0" d="M89,132.6h2.5c2.7,0,4.2-0.5,4.2-2.6c0-2.1-1.3-2.7-4.2-2.7H89V132.6z M96.9,130c0,2.6-1.9,3.6-5.2,3.6h-3.9
	v-7.3h3.9C95,126.3,96.9,127.5,96.9,130"/>
<polygon id="XMLID_9_" class="st0" points="112.7,126.3 114,126.3 108.9,133.9 108.9,133.9 103.7,126.3 105.1,126.3 108.9,132 "/>
<path class="st0" d="M121.8,131.2h4.5l-2.3-3.3L121.8,131.2z M127,132.2h-5.9l-0.9,1.4H119l5.1-7.5h0.1l5.2,7.5H128L127,132.2z"/>
<path id="XMLID_6_" class="st0" d="M114.1,48.1l5.9,8.6h9.7l-5.5-8C120.3,48.5,117,47.9,114.1,48.1"/>
<path id="XMLID_5_" class="st0" d="M116.4,37.2L91.1,0.4h-0.7L52.6,56.6h9.3l28.7-42.8l15.9,23.1c-25.3,0.8-40,17.4-40,17.4
	s13.8-10.8,43.1-10.2c2.8,0.1,5.8,0.2,8.9,0.5c2,0.2,3.9,0.3,5.6,0.2c16-0.1,21.7-7.9,23.7-12.7C143.5,37.5,127,37.6,116.4,37.2"/>
<polygon id="XMLID_4_" class="st0" points="59.4,144.2 60.4,148.1 64.4,147.8 61,149.9 62.5,153.6 59.4,151.1 56.4,153.6 
	57.9,149.9 54.5,147.8 58.5,148.1 "/>
<polygon id="XMLID_3_" class="st0" points="80.6,144.2 81.6,148.1 85.6,147.8 82.2,149.9 83.7,153.6 80.6,151.1 77.5,153.6 
	79,149.9 75.6,147.8 79.6,148.1 "/>
<polygon id="XMLID_2_" class="st0" points="100.7,144.2 101.7,148.1 105.7,147.8 102.3,149.9 103.8,153.6 100.7,151.1 97.6,153.6 
	99.1,149.9 95.8,147.8 99.7,148.1 "/>
<polygon id="XMLID_1_" class="st0" points="121.9,144.2 122.8,148.1 126.8,147.8 123.4,149.9 124.9,153.6 121.9,151.1 118.8,153.6 
	120.3,149.9 116.9,147.8 120.9,148.1 "/>
</svg>
