<?xml version="1.0" encoding="utf-8"?>
<!-- Generator: Adobe Illustrator 19.0.0, SVG Export Plug-In . SVG Version: 6.00 Build 0)  -->
<svg version="1.1" id="Layer_1" xmlns="http://www.w3.org/2000/svg" xmlns:xlink="http://www.w3.org/1999/xlink" x="0px" y="0px"
	 viewBox="0 0 68 30" style="enable-background:new 0 0 68 30;" xml:space="preserve">
<style type="text/css">
	.st0{fill:#FFFFFF;}
</style>
<path class="st0" d="M14.6,21.5H8.7v-5.9h5.9V21.5z M7.6,7.5H1.7V1.6h5.9V7.5z M22.6,29.5v-22h-14v-7h-8v8h7v5.9h-7v15H22.6z"/>
<path class="st0" d="M62.1,21.2v-2.1h1.5c0.9,0,1.3,0.4,1.3,1c0,0.6-0.3,1-1.3,1H62.1z M62.1,17.4v-1.5h1.2c0.5,0,0.8,0.3,0.8,0.7
	s-0.2,0.7-0.8,0.7H62.1z M59.8,23.2h3.9c2.3,0,3.7-1,3.7-2.8c0-1.4-0.9-2.1-1.9-2.4c0.6-0.3,1.1-0.8,1.1-1.8c0-1.4-1.2-2.3-3-2.3
	h-3.8V23.2z M46.9,23.2h2.4l0.2-4l2.4,2.7c0,0,0.1,0,0.1,0l2.3-2.7l0.2,3.9H57l-0.5-9.3c0-0.1-0.1-0.1-0.1,0l-4.4,5l-4.4-5
	c-0.1-0.1-0.1-0.1-0.1,0L46.9,23.2z M41.3,20.6h-1.9l0.9-2.1L41.3,20.6z M38.7,22.4h3.5l0.4,0.8h2.6l-4.5-9.4c0-0.1-0.1-0.1-0.2,0
	l-4.5,9.4h2.4L38.7,22.4z M34.4,14h-2.5v6.5c0,0.6-0.2,0.8-0.6,0.8c-0.4,0-0.6-0.3-0.8-0.6l-1.9,1.2c0.5,0.9,1.4,1.5,3,1.5
	c1.8,0,2.8-1,2.8-2.7V14z"/>
</svg>
