<?xml version="1.0" encoding="utf-8"?>
<!-- Generator: Adobe Illustrator 19.0.0, SVG Export Plug-In . SVG Version: 6.00 Build 0)  -->
<svg version="1.1" id="Layer_1" xmlns="http://www.w3.org/2000/svg" xmlns:xlink="http://www.w3.org/1999/xlink" x="0px" y="0px"
	 viewBox="0 0 82 31" style="enable-background:new 0 0 82 31;" xml:space="preserve">
<style type="text/css">
	.st0{fill:#FFFFFF;}
	.st1{fill:#00BFD6;}
</style>
<path id="XMLID_86_" class="st0" d="M75.4,30.9H81v-1.3h-4.1v-8h-1.5V30.9z M66.6,30.9h6.1v-1.3H68V28h4v-1.3h-4v-3.9h4.5v-1.3h-5.9
	V30.9z M60.1,31L60.1,31l4.1-9.4h-1.5l-2.6,6.2l-2.7-6.2H56L60.1,31z M52.9,28.3h-3.1l1.5-3.7C51.3,24.6,52.9,28.3,52.9,28.3
	 M49.3,29.6h4.2l0.5,1.3h1.5l-4.1-9.5h-0.1l-4.1,9.5h1.5L49.3,29.6z M40.2,27.4v-4.5H41c1.8,0,2.5,0.8,2.5,2.3
	c0,1.4-0.7,2.3-2.5,2.3H40.2z M43.2,28.2c1.2-0.6,1.9-1.7,1.9-3.1c0-2.1-1.4-3.6-4-3.6h-2.4v9.3h1.5v-2.2h0.9c0.2,0,0.5,0,0.7,0
	l1.6,2.3h1.7L43.2,28.2z M32.1,30.9h1.5v-8h2.8v-1.3h-7v1.3h2.8V30.9z"/>
<path id="XMLID_78_" class="st0" d="M62.8,16.4v-2.1h1.5c0.9,0,1.3,0.4,1.3,1c0,0.6-0.3,1.1-1.3,1.1H62.8z M62.8,12.5V11H64
	c0.5,0,0.8,0.3,0.8,0.8c0,0.4-0.2,0.7-0.8,0.7H62.8z M60.4,18.4h4c2.3,0,3.7-1,3.7-2.8c0-1.4-0.9-2.1-1.9-2.4
	c0.6-0.3,1.1-0.8,1.1-1.8c0-1.4-1.2-2.3-3-2.3h-3.8V18.4z M47.5,18.4h2.4l0.2-4l2.4,2.7c0,0,0.1,0,0.1,0l2.3-2.7l0.2,4h2.4L57.1,9
	c0-0.1-0.1-0.1-0.1,0l-4.4,5l-4.5-5c-0.1-0.1-0.1-0.1-0.1,0L47.5,18.4z M41.9,15.7H40l0.9-2.2L41.9,15.7z M39.2,17.6h3.5l0.4,0.8
	h2.6l-4.5-9.5c0-0.1-0.1-0.1-0.2,0l-4.5,9.5h2.4L39.2,17.6z M34.9,9.1h-2.5v6.5c0,0.6-0.2,0.8-0.6,0.8c-0.4,0-0.6-0.3-0.8-0.6
	l-1.9,1.2c0.5,0.9,1.4,1.5,3,1.5c1.8,0,2.8-1,2.8-2.7V9.1z"/>
<rect id="XMLID_4_" x="1.5" y="2.2" class="st1" width="7" height="7"/>
<path id="XMLID_73_" class="st0" d="M15.1,22.8h-6v-6h6V22.8z M8,8.8h-6v-6h6V8.8z M23.1,30.9V8.8h-14V1.8H1v8.1h7v6H1v15.1H23.1z"
	/>
</svg>
