<?xml version="1.0" encoding="utf-8"?>
<!-- Generator: Adobe Illustrator 19.0.0, SVG Export Plug-In . SVG Version: 6.00 Build 0)  -->
<svg version="1.1" id="Layer_1" xmlns="http://www.w3.org/2000/svg" xmlns:xlink="http://www.w3.org/1999/xlink" x="0px" y="0px"
	 viewBox="0 0 82 31" style="enable-background:new 0 0 82 31;" xml:space="preserve">
<style type="text/css">
	.st0{fill:#FFFFFF;}
</style>
<path class="st0" d="M75.4,30H81v-1.3h-4.1v-8h-1.5V30z M66.6,30h6.1v-1.3H68v-1.6h4v-1.3h-4V22h4.5v-1.3h-5.9V30z M60.1,30.1
	L60.1,30.1l4.1-9.4h-1.5l-2.6,6.2l-2.7-6.2H56L60.1,30.1z M52.9,27.4h-3.1l1.5-3.7C51.3,23.7,52.9,27.4,52.9,27.4 M49.3,28.7h4.2
	l0.5,1.3h1.5l-4.1-9.5h-0.1L47.2,30h1.5L49.3,28.7z M40.2,26.5V22H41c1.8,0,2.5,0.8,2.5,2.3c0,1.4-0.7,2.3-2.5,2.3H40.2z M43.2,27.3
	c1.2-0.6,1.9-1.7,1.9-3.1c0-2.1-1.4-3.6-4-3.6h-2.4V30h1.5v-2.2h0.9c0.2,0,0.5,0,0.7,0l1.6,2.3h1.7L43.2,27.3z M32.1,30h1.5v-8h2.8
	v-1.3h-7V22h2.8V30z"/>
<path class="st0" d="M62.8,15.5v-2.1h1.5c0.9,0,1.3,0.4,1.3,1c0,0.6-0.3,1.1-1.3,1.1H62.8z M62.8,11.6v-1.5H64
	c0.5,0,0.8,0.3,0.8,0.8c0,0.4-0.2,0.7-0.8,0.7H62.8z M60.4,17.5h4c2.3,0,3.7-1,3.7-2.8c0-1.4-0.9-2.1-1.9-2.4
	c0.6-0.3,1.1-0.8,1.1-1.8c0-1.4-1.2-2.3-3-2.3h-3.8V17.5z M47.5,17.5h2.4l0.2-4l2.4,2.7c0,0,0.1,0,0.1,0l2.3-2.7l0.2,4h2.4l-0.5-9.4
	c0-0.1-0.1-0.1-0.1,0l-4.4,5l-4.5-5c-0.1-0.1-0.1-0.1-0.1,0L47.5,17.5z M41.9,14.8H40l0.9-2.2L41.9,14.8z M39.2,16.7h3.5l0.4,0.8
	h2.6L41.1,8c0-0.1-0.1-0.1-0.2,0l-4.5,9.5h2.4L39.2,16.7z M34.9,8.2h-2.5v6.5c0,0.6-0.2,0.8-0.6,0.8c-0.4,0-0.6-0.3-0.8-0.6
	l-1.9,1.2c0.5,0.9,1.4,1.5,3,1.5c1.8,0,2.8-1,2.8-2.7V8.2z"/>
<path class="st0" d="M15.1,22h-6v-6h6V22z M8,7.9h-6v-6h6V7.9z M23.1,30V7.9h-14V0.9H1V9h7v6H1V30H23.1z"/>
</svg>
