<?xml version="1.0" encoding="utf-8"?>
<!-- Generator: Adobe Illustrator 19.0.0, SVG Export Plug-In . SVG Version: 6.00 Build 0)  -->
<svg version="1.1" id="Layer_1" xmlns="http://www.w3.org/2000/svg" xmlns:xlink="http://www.w3.org/1999/xlink" x="0px" y="0px"
	 viewBox="0 0 32 32" style="enable-background:new 0 0 32 32;" xml:space="preserve">
<style type="text/css">
	.st0{fill:#FFFFFF;}
</style>
<path id="XMLID_48_" class="st0" d="M31.7,26.8l-5.6-5.6c3.1-5.4,2.4-12.4-2.2-17c-5.5-5.5-14.4-5.5-19.8,0
	c-5.5,5.5-5.5,14.4,0,19.8c4.7,4.7,12,5.4,17.4,1.9l5.5,5.5c0.4,0.4,1.1,0.4,1.5,0l3.2-3.2C32.1,27.9,32.1,27.2,31.7,26.8z
	 M8.7,19.5c-2.9-2.9-2.9-7.6,0-10.6c2.9-2.9,7.6-2.9,10.6,0c2.9,2.9,2.9,7.6,0,10.6C16.4,22.4,11.6,22.4,8.7,19.5z"/>
</svg>
